<svg width="160.000000" height="160.000000" viewBox="0 0 160 160" fill="none" xmlns="http://www.w3.org/2000/svg" xmlns:xlink="http://www.w3.org/1999/xlink">
	<desc>
			Created with Pixso.
	</desc>
	<defs/>
	<rect id="Frame 56571" width="160.000000" height="160.000000" fill="#FFFFFF" fill-opacity="0"/>
	<path id="Ellipse 10" d="M79.75 160C123.89 160 159.75 124.14 159.75 80C159.75 35.85 123.89 0 79.75 0C35.6 0 -0.25 35.85 -0.25 80C-0.25 124.14 35.6 160 79.75 160ZM125.7 41.44C134.46 51.87 139.75 65.32 139.75 80C139.74 93.62 135.14 107.32 125.7 118.55C116.95 129 104.61 136.54 90.16 139.07C76.74 141.44 62.45 139.29 49.75 131.94C37.95 125.14 28.38 114.3 23.38 100.51C18.71 87.71 18.35 73.26 23.38 59.48C28.03 46.67 37.04 35.37 49.75 28.05C61.55 21.22 75.71 18.36 90.16 20.92C103.58 23.28 116.28 30.19 125.7 41.44Z" fill="#A23FEE" fill-opacity="0.100000" fill-rule="evenodd"/>
	<path id="Ellipse 9" d="M31.17 143.76C20.14 135.41 11.78 124.59 6.43 112.53C-0.73 96.49 -2.16 79.34 1.26 63.37C4.89 46.19 13.82 31.47 25.97 20.56C36.36 11.19 48.54 5.06 61.28 2.09C66.66 0.84 71.6 4.89 72.18 10.38C72.76 15.87 68.73 20.71 63.41 22.18C54.28 24.72 46.11 29.32 39.36 35.41C29.56 44.22 23.35 55.54 20.82 67.52C18.07 80.4 19.7 93.21 24.69 104.39C28.59 113.17 34.34 120.54 41.29 126.26C45.55 129.78 47.26 135.84 44.49 140.62C41.73 145.4 35.57 147.09 31.17 143.76Z" fill="#A23FEE" fill-opacity="1.000000" fill-rule="evenodd"/>
	<path id="40%" d="M93.13 79.6C90.64 79.6 89.29 77.83 89.29 75.74L89.29 74.82C89.29 72.7 90.69 70.94 93.13 70.94C95.64 70.94 96.98 72.7 96.98 74.82L96.98 75.74C96.98 77.84 95.61 79.6 93.13 79.6ZM86.07 80.28C86.06 86.04 83.42 89.38 79.02 89.38C74.63 89.37 71.96 86.02 71.98 80.28C71.98 74.56 74.64 71.3 79.02 71.3C83.4 71.3 86.08 74.58 86.07 80.28ZM64.02 85.92L55.64 85.92L55.64 83.02L62.93 71.54L67.55 71.54L67.55 82.97L69.72 82.97L69.72 85.92L67.55 85.92L67.55 89L64.02 89L64.02 85.92ZM92.65 89L90.43 89L102.43 71.54L104.65 71.54L92.65 89ZM93.13 73.12C92.12 73.12 91.79 74 91.79 74.82L91.79 75.74C91.79 76.57 92.12 77.41 93.13 77.41C94.17 77.41 94.48 76.57 94.48 75.74L94.48 74.82C94.48 73.98 94.2 73.12 93.13 73.12ZM75.73 80.28C75.73 84.31 77.02 86.32 79.02 86.32C81.02 86.32 82.31 84.31 82.3 80.28C82.3 76.32 81.01 74.33 79.02 74.33C77.03 74.33 75.74 76.32 75.73 80.28ZM59.36 82.97L64.09 82.97L64.09 75.57L63.96 75.57L59.36 82.83L59.36 82.97ZM102.09 89.6C99.6 89.6 98.25 87.82 98.25 85.72L98.25 84.8C98.25 82.71 99.63 80.93 102.09 80.93C104.6 80.93 105.94 82.69 105.94 84.8L105.94 85.72C105.94 87.82 104.57 89.6 102.09 89.6ZM102.09 83.11C101.07 83.11 100.73 83.97 100.73 84.8L100.73 85.72C100.73 86.53 101.06 87.4 102.09 87.4C103.13 87.4 103.44 86.56 103.44 85.72L103.44 84.8C103.44 83.97 103.17 83.11 102.09 83.11Z" fill="#A23FEE" fill-opacity="1.000000" fill-rule="evenodd"/>
</svg>
