<svg width="231.000000" height="92.000000" viewBox="0 0 231 92" fill="none" xmlns="http://www.w3.org/2000/svg" xmlns:xlink="http://www.w3.org/1999/xlink">
	<desc>
			Created with Pixso.
	</desc>
	<defs>
		<linearGradient id="paint_linear_88_5066_0" x1="115.088234" y1="1.000000" x2="115.088234" y2="92.000000" gradientUnits="userSpaceOnUse">
			<stop stop-color="#F8C51B" stop-opacity="0.800000"/>
			<stop offset="1.000000" stop-color="#F8DD4E" stop-opacity="0.101961"/>
		</linearGradient>
	</defs>
	<path id="Vector 1" d="M-0.92 82.22Q1.39 76.99 4.9 71.77Q12.14 61.03 18.66 61.03Q24.44 61.03 29.11 67.51Q32.04 71.58 34.43 71.58Q36.5 71.58 40.25 59.87Q43.12 50.92 45.06 47.32Q48.56 40.81 53.22 40.81Q57.61 40.81 60.28 43.04Q61.83 44.34 63.56 47.48Q65.63 51.24 67.98 51.24Q70.1 51.24 73.97 40.06Q77.1 31.01 79.28 27.33Q83.18 20.72 88.41 20.72Q93.72 20.72 96.95 25.39Q98.74 27.99 100.76 34.2Q102.91 40.81 104.55 40.81Q106.69 40.81 108.35 36.44Q110.65 30.38 114.64 30.38Q118 30.38 121.16 35.28Q122.92 38.01 126.17 45.29Q129.62 53 131.53 55.89Q134.51 60.39 137.34 60.39Q140.03 60.39 141.58 57.86Q142.61 56.18 143.89 51.48Q145.29 46.38 146.52 44.4Q148.74 40.81 152.73 40.81Q156.5 40.81 158.92 45.52Q160.26 48.13 162.23 55.17Q164.56 63.45 166.34 66.6Q169.16 71.58 173.54 71.58Q177.06 71.58 179.97 64.3Q181.84 59.62 184.8 47.02Q187.8 34.19 189.75 29.33Q193.2 20.72 198.14 20.72Q202.42 20.72 204.87 24.45Q206.25 26.53 207.84 31.84Q209.27 36.58 210.34 38.27Q211.96 40.81 214.66 40.81Q217.14 40.81 218.68 35.46Q219.71 31.88 220.9 22.11Q222.19 11.48 223.41 7.4Q225.63 0 230.17 0L230.17 2Q227.12 2 225.33 7.97Q224.15 11.89 222.88 22.35Q221.67 32.28 220.6 36.02Q218.65 42.81 214.66 42.81Q210.87 42.81 208.66 39.34Q207.43 37.42 205.93 32.42Q204.41 27.39 203.2 25.55Q201.34 22.72 198.14 22.72Q194.56 22.72 191.61 30.08Q189.71 34.79 186.74 47.47Q183.76 60.22 181.83 65.04Q178.41 73.58 173.54 73.58Q168 73.58 164.6 67.59Q162.7 64.23 160.31 55.71Q158.39 48.87 157.14 46.43Q155.28 42.81 152.73 42.81Q149.85 42.81 148.22 45.45Q147.14 47.19 145.82 52Q144.46 56.98 143.28 58.91Q141.16 62.39 137.34 62.39Q133.43 62.39 129.86 56.99Q127.86 53.97 124.35 46.11Q118.21 32.38 114.64 32.38Q112.03 32.38 110.22 37.15Q108.07 42.81 104.55 42.81Q101.46 42.81 98.86 34.82Q96.93 28.89 95.3 26.53Q92.67 22.72 88.41 22.72Q84.32 22.72 81 28.35Q78.93 31.85 75.86 40.71Q73.72 46.91 72.58 49.14Q70.49 53.24 67.98 53.24Q64.45 53.24 61.81 48.44Q60.26 45.63 58.99 44.57Q56.89 42.81 53.22 42.81Q49.75 42.81 46.82 48.26Q44.97 51.71 42.15 60.48Q40.09 66.94 38.98 69.28Q36.93 73.58 34.43 73.58Q31.02 73.58 27.48 68.67Q23.42 63.03 18.66 63.03Q13.2 63.03 6.56 72.89Q3.14 77.96 0.91 83.03L-0.92 82.22Z" fill="#F8C51B" fill-opacity="1.000000" fill-rule="evenodd"/>
	<path id="Vector 2" d="M0 82.14C0 82.14 9.08 61.66 18.66 61.66C28.25 61.66 27.99 72.15 34.43 72.15C40.86 72.15 42.37 41.57 53.22 41.57C64.07 41.57 61.29 51.93 67.98 51.93C74.66 51.93 76.17 21.6 88.41 21.6C100.64 21.6 98.75 41.57 104.55 41.57C110.35 41.57 108.21 31.2 114.64 31.2C123.34 31.2 127.51 61.03 137.34 61.03C147.18 61.03 142.52 41.57 152.73 41.57C162.95 41.57 159.67 72.15 173.54 72.15C186.15 72.15 185.4 21.6 198.14 21.6C209.11 21.6 204.69 41.57 214.66 41.57C224.62 41.57 219.07 1 230.17 1L230.17 92L0 92L0 82.14Z" fill="url(#paint_linear_88_5066_0)" fill-opacity="1.000000" fill-rule="evenodd"/>
</svg>
