<svg width="15.000000" height="18.000000" viewBox="0 0 15 18" fill="none" xmlns="http://www.w3.org/2000/svg" xmlns:xlink="http://www.w3.org/1999/xlink">
	<desc>
			Created with Pixso.
	</desc>
	<defs/>
	<path id="Mask" d="M7.38 17.01C10.06 17.01 12.04 15.91 13.33 13.7C14.27 12.06 14.75 10.06 14.75 7.7C14.75 6.76 14.63 5.78 14.41 4.75C14.18 3.73 13.76 2.77 13.15 1.88C12.38 0.79 11.37 0.04 10.13 -0.37C9.4 -0.61 8.48 -0.74 7.38 -0.75L-0.25 -0.75L-0.25 17.01L7.38 17.01Z" fill="#FFFFFF" fill-opacity="1.000000" fill-rule="evenodd"/>
	<mask id="mask195_1740" mask-type="alpha" maskUnits="userSpaceOnUse" x="-0.250000" y="-0.750000" width="15.000000" height="17.768127">
		<path id="Mask" d="M7.38 17.01C10.06 17.01 12.04 15.91 13.33 13.7C14.27 12.06 14.75 10.06 14.75 7.7C14.75 6.76 14.63 5.78 14.41 4.75C14.18 3.73 13.76 2.77 13.15 1.88C12.38 0.79 11.37 0.04 10.13 -0.37C9.4 -0.61 8.48 -0.74 7.38 -0.75L-0.25 -0.75L-0.25 17.01L7.38 17.01Z" fill="#000000" fill-opacity="1.000000" fill-rule="evenodd"/>
	</mask>
	<g mask="url(#mask195_1740)">
		<path id="Path" d="M3.34 13.93L3.34 2.33L6.76 2.33C8.44 2.33 9.57 2.81 10.13 3.78C10.7 4.75 10.98 6.14 10.98 7.95C10.98 9.26 10.79 10.39 10.41 11.34C9.72 13.06 8.51 13.93 6.76 13.93L3.34 13.93Z" fill="#0E73F6" fill-opacity="1.000000" fill-rule="evenodd"/>
	</g>
</svg>
